<mxfile host="Electron" agent="Mozilla/5.0 (Windows NT 10.0; Win64; x64) AppleWebKit/537.36 (KHTML, like Gecko) draw.io/26.2.2 Chrome/134.0.6998.178 Electron/35.1.2 Safari/537.36" version="26.2.2">
  <diagram name="Page-1" id="nnzPca9x9G2SgFSYtu0X">
    <mxGraphModel dx="2754" dy="1185" grid="0" gridSize="10" guides="1" tooltips="1" connect="1" arrows="1" fold="1" page="1" pageScale="1" pageWidth="850" pageHeight="1100" math="0" shadow="0">
      <root>
        <mxCell id="0" />
        <mxCell id="1" parent="0" />
        <mxCell id="IeRwTSqB_coKtBVF76bU-1" value="" style="shape=image;verticalLabelPosition=bottom;labelBackgroundColor=default;verticalAlign=top;aspect=fixed;imageAspect=0;image=data:image/png,iVBORw0KGgoAAAANSUhEUgAAAKoAAABfCAYAAAB4KVwoAAAAAXNSR0IArs4c6QAAAARnQU1BAACxjwv8YQUAAAAJcEhZcwAADsMAAA7DAcdvqGQAABe8SURBVHhe7Z0JeFTVFcf/M5lM9gXIAoEkGCAEEtYQNgkQQEGrLGpdSlFwqSJYQEGtCyKgdWnVKovFWrS2rhSwssoiCMoSCFsgQFjComwJWSezz/SeO++Rl8lsmZnYDH0/vve9++68eRDmP+eec+65NworAzIyzRylcJaRadbIQpUJCGShygQEslBlAgJZqDIBgSxUmYBAFqpMQCALVSYgkIUqExDIQpUJCGShygQEslBlAgJZqDIBgSxUmYBAFqpMQCALVSYgcFk4bTp/BrXrVwpXNhRKJRQRkVBGRLFzFJTRMQiKS4AqJU24I/BYX1GDrPAQtFUHCz0yzQ2XQjUc3ocrj9wpXLlHGdMCqqRkKOMSoWrdFkH8SEJwWjpUqR2Eu5oXy65W4d7i8/hXx7a4p1WM0CvT3HC7FEW363tcfeZRWA16occ7lC3jEJI9gB+hOYMQ1Kad8Mr/jv+UV+OO4+dgZv8Fy9OTMa5ltPCKTHPDozVT+oIdKJv5MKw6rdDjO6r2HRHSZyDCcm9CSM6NQu8vxzo23N9+7CxMwo+/OiMVt8ZG8rZM88PjxX2GQwUonX4/rNpaocd/qDO6Iebp+fz8S0AiHcNEapD86Bu7tMfwmAjhSqa54XHUr+7WG3ELPoUi3P8fpuHoIVx5cAzK5z4FS8VVobdpoMDplqNn6omUCFMqhJZMc6RR6Sl1l+6IX/wFlFFNE3TUrluBS/fdBO3GVUKPf9lcpcHY42eFq/pEBsmZuuZMoz+d4E5dEUdiZRF+U2CpLMfV2b9H+byZ7MIi9PrO9upa/IpZUp3FsacTJQu1WePVp0Pppvi/fsUj+aaidu1yVD73GGAyCj3es6tGi5FFzkVKRAUFCS2Z5ojXZoQS/PFLliEovrXQ43802zdD//zDgNF7se5kIh1+pAS1bqxznEoWanPGp/FOlZTCLSsl9psCKxOX4cwpGJ6bBKvBIPR6ToFGh5uKSqBxI9JYWaTNHp8dMxIpiZVE2xToyiugVphgfG5io8R6qFaHYcyS1pjd+7mtg1VCyz0ajQaHDx+GVuu/nLI9e/fuEVoyIn6JIGj4JzegKeb7DdUaUKpXrWTWlcSq1wmvOIdEOpSJtNJsFnpck9gIoa5duwYvvvA81qxZI/T4l6qqKrwyfz6OHTsm9MgQfhEqQYFV/PtfIfiGTkKP/7AIPmoIE6uR3AC9c2tWpNUjj4n0qskzkRJtGiHU3bt2o0ePnsjfvUvosXHq1El+3rljBy5dusTbUrZ9/z0uXLggXNVRUVGOwsJDwlUd9OU8d+4cSq9cEXrqqK6u5q/9P+HxzJSnWKorUTp1PIzFR4Qe30nolYXgiHDhCtCbFVDP/xsUYfUnH44ykQ5mIr1iNAk9nvFsUhz+mJIoXDlnT34+Fix4D6+/8SZmzXwK06fPQO/sbP7axAfuR2xsLHcNysrKMGrUKPzu0cdw5swZZiHnoU2bNiwmNLJ7WuDpZ57h71m4YAF27tyB8IgIVFZUYOasWUhP78yflZycDJ1ejxomylG33IIJE+7n71m8eBGKjx9HeHg4amtrMW36dKSmtuevXc/4zaKK0GRA/KLP+eSAv6DSQikhQVYYn38QVq1G6AFO6AxeiZToFKoWWq7Zzaxon5wcJCYmok+fHCaynbzfaDTAzNyMnJy++OBvH2LevPlYt24dSk6fhsGgx513/Rovz52HV//4GoqOFnGru4u9t6joCN75y7v461+XIC8vD3v37OXPI7p17877Z780B6u++QY//fQTCgoK+DPpWfNfeRU33JCGb9hr/w/4XagE1avSdKu6m83a+IrSwdCsVilsYtXUoERvRO7h016JlOgYGiK0nFNTU8OEmo8bb7QV0PTr3x/5e/LrBVXdutlqFTKzspCUlITi4mKkpKSyIf9nPD1rJp6YOgU6dj9ZwpIzJUhISECrVq34ex59bDI7HuNtYtCNg/i5c+fOiIiMxHk21B8uLORuxUuzX8STM6Zzl6G8vJzfd73TJEIlFGHhiHv3E1T3HYFFuU9gY+eboVe5F0QDFAooVY59SBKr7sWHMaTwFC56KVKiU5h7i/r91i0s0KnEvLlzcce4sXj9tT/y4Xrrli3CHcx3ZGIWIQurCg7GBx8sQdGRIjw2+XG8t2AhItgwT4SGhLJ76jISZ8+exZ49ddG+dBShKgSLxYJg9rz4+ATkDRvOj9tuH41bb7nVdtN1TpMJlSiuVWPAkMV4d+gMTL37fQx6cjc+zx4vvOoZweFhQssxYUzDmeePCleNhxL9ngRTO9hwPXbsOCxfsfLaMXrMWOzcZRv+CRqiN23ahA+WLOGWtmvXrtAy65naPhVpaWlY9tVXuHrVVnTTNTMTJ0+ewLZt3+PgwYNY+vcPsX//Pv6aM3r07MneX4Z27dph+PDhLKDbjZ8dBGjXI00m1JIqKwZsscIUWpdMrw6Jwpxb5+HZ0W/CpPQs0lZHua8RNSi8T9j3j6oL0pyh0+lQw4KkYUwcUoYOHYqqykqYhAxDXFwrrF71DRPPz5g06UHuy0568CFmeSv5UH2l9Ap69+6NSDaUd+rUCbePHo0Vy5fjn5/8g12n4/77H4CKjR5pHTrwe0QSE1sjMioKXbp0wW8nTMAq9ndQiiwzKxO33367cNf1jd+jfuJ8jRU9N1igl4jUnv4lO7Dk00lQm10n8VukpyE8wXlNwVV1GBJ/9SRMCu++c/OTE/B823jhyjsomJo0cSJmzXqaWz0Z/+N3i3pRY0UvNyIldrYfgJnj3oGVe2DOCYlxvTzkucxhXouU6B/p3qK6IzhYzYfjSA+sv4x3+NWilums6LrWjNpQz4Z1YtqWtzB52wLhqj7qyAjE98wUrhrycWoPTMweLVw1njAWsFTmZCCYBWwyzRu/WdRyvRVZay2NEimxYPA0HE3sIlzVJyzelrpxxLK2XfBQb9/8sztaRskiDRD8ItQqAxPpGjNq3Az3jjArg7gL4Ci4CotrKbTq82lyFu7teyfMPopMXh4dOPg89JvYu9O+NqE8WAVzjQlWgwVWvYUn/xTBSnYooAwPgkLt+jsxa+NreGjHEuGKDfvRUYjv3tDSzsvIxeyuQ4Ur72mlCkJpnwzh6pehsrIS365fz3OivXr34tOlvkITER99tJTnaktLS3lg17JlS/ztw79j27ZtePutPyMkJARvvf0On8YNVHyyqCTSPv/W48IJLTS7yqErrIb+uAaGM1oYSrTQF2ugO1KD2j2VqM2vgO5oDYwX9LDqGpbevTdkGi5F1RVhR7ZJEFo2KoNDMD5nnF9ESsxo49yt8IQ1a1bzxD8dUx6fzFNY7sjPz8dnn32KL774HF9++aXQ6z1UafX7J6Zi86ZNfPaLREqIuVqqLSD0ej2qq6t4O1DxWqi0qmPMFxocPFALc6UJLHx3idVohfmqEYbTtagtqIT2QBUM57SwaG05SF1wGN7Je5K3aSZKHPbpsR+274UOI5/gQ74/oIV801r7JtRlXy0TWuBVUZS4bxR+iGEp/1pRUcHbN910M55/4QXMnTefW8/rDa+FOmGZBmsPN77qXsSiMcN4TgftvipuhUmwK3vchU0tO+A8LW9h/ud/2qQje9gjeLj3bShTu56hagwzmEh9WXVKhc1Unidl08aNQss5lOy/5557+THuDs+3SnLGvn22maxu3bpj8uOPIzu7D7KystC+/fVXTeXVp/Wn7Tp8dtB7kdpjKjVwwYb/8AO+MKswpzYCOdl3Y8yAe7Av1r9rsjqHheA5HxP8GyWizMsbxs/Hjx93WyNKvuM99zKhsiMz03nazRMMBgMvJySSU5L5+Xqm0ULdfMqEp9c3zTIMY4Rtzb0lNAxF7ZpmUzXaDC3Uh80myC+kEj1iwMCBGDN2LG8Tmza5t6r+goQqogpqXErQGVTVdeJEcZMus/GWRkX9JhYDdXq7Emcq3K9DagyKpEIoe6wCWpyDurAKisieUGc+BYvZDL1Gww9/zEu8lpKIZ5J8W+L9n6+/5lE28eLs2ejVqzcvoj558iRiYmKw9KOP+WuOoJK8t/78J+bVKHDvfb/hRSsi9P6Plv6dV0g98rtH+Rdi5coVLJo/gqSktoiPj+P9VLVFUOXV0aNFvE2lgq1bNxx5yH+lOlbitddfd5plWLbsK+66SFcmUIZg5KhRGD16jNBTxz8/+QTHjh1Fx06d8MADE4Xe+ixf/m/sKyhAu3bJ9coXpaxevYrX5sbFx2PatOlCr2MaZVE/ZcO9X0UaWQpl3gIohy7mIrXqzagNMkKj3QOz7icog4IQFh2NWPYhRLJhUx0e3qCI2hNIGNPbJvgsUmLjxg38TMM4iZQYPnwEP1P6adeu+ktUpNASEloYWFhYyGtLpVCkTq/t378fGzd8i5fnvMQtNwmWBEmpJhIe3UOHKFKCXACxX3qIInXGxYsX8dSTM/Dpv/7VYPkMBYgfLV2KPzz7DE97STFbzPz5X69cWc+yS1m5YgW/Z/36ddeyEPasWb2G30OW3B0ef+pk0F7Z4r8hQdl9NYJumwtFm7r/cEup+HwrtOc+EdoMJrTg0FBExMZy0UbFxXEBU58r4QZR9oDdd3NSAt5O9s0vJY4fP4bz58/z9rBhdZVUuYMHCy3mGm3eJLTcYOd90JdJZAX7kCnd1b17d9x51108+Bo//re8nmDC/Q8Iwdgdwt224moxSJMeffv2E+5wzJtvvoHTp0/z9h0suFu0+H1evrhw0SKMHDmK99MiQ8rFSqGVDCKOShOPMPFRfldkt4MvL6XT6CCkz3OGx0JdV2xEcZkfrCmzmMrcD6DIWsP+dskCPOZXWKvr9mA1Vu6HsaJuaYYUlVqN0MhIbmVJuLFsmIpJTOQCFo9oNpxEJyQgJzIc65L9s6OLNIiSlvxRMfSgQbm8TTWiYsrIJXaejL1rM33GDMx5eS4XKAVfJFhi3Lhx/HrcOKlQM64FadKjb1/nAqCh+fSpU7z961/fzcsHRfehTZskPlxTyosoKiriS2tEyGURyxBpHZk94hIdEWnNrgjllEVycnKElnM8Furnh/wQ5QdroRz+FyiS9wsddViq2PPtPrzas0thtbjfQJisEbkJJGDxCGK+XmeYsTXFt3ypCCXNt7Phl6CiZ3ufcPiIOuFu2fKd0PKO3NxcDB48RLhqGtYKy73JhbnvN7/hbXtIvKFs1CK+ZUO4lOw+ffh5j2SdlwgtWCQo2CQOHjhQz8ISosCpLpd8e3d4JFQjM3wri3zcA0oUaZxtqLHHWtVQkBZDKXMB/ilcNY50JtIfU/y3N9YP27dfm32SDvsi3bv34B86sW7tWn52hdXuW2m11o1WaWnuMx5SC2z/LBFpv9Rg05dOTG11znA+jRwVFYWOHTvyNq2mlf6dohWkfDKtDROhrIHo0z788CPXLG9+/m5+JsgnPcKCRIIWSXqCR0Jdy4b9ar3j/wyPYEO8Mm8hFC2d5BmNbNjXOl7zpL+yAcaqA8KVZ6TDgh1MpL6VrNRHTD2FhYWxYd628E4KWfURI27i7cuXL3N/1hVSn5RQKusKesR1Va5QStdU2T1LRCGp05XeQkGUSDxzkVxBbgBBIr0i2WNADCSJvZK1Xrt22vxRyjC0aNECAwbYrCpF9yJ79+7l9Q6EK/dEikdC/e6Ub9ZUmb3MqSUlLNWu3QrNyXdg0dX957oijVvSVn4VKUXA5KcRNzKRqplr4Yi8YbbkP7Fxgy074Ax7n5T22RKx2L3miHoW1cn9UistxSTZdE4d7Hpho/RnNZnqjAl9YWkjDkJqLbdvt7lHtEpXeiafVByRyI8nWrZqhVQPZ9E8EurOc57vOtKA8AooOtn+8c6wal1/EaxmLaqLX2WugG24ckZ7Zkl3M0vq0Q/VCMSUFEECFItR7I/Jjz0q3MVchR9+cJq6IeytoDR7oXRiIaVI3++JRZVCq2NFpOJzhFGy7Set55LSt5/NGlLm4CpzJc6dPXstzTVQ8E9p2pg2yyAKCmz+7L59Bfzcv59NxJ7g9jMl/7TggvdLkRUp9I9zbSGcDftSLPrLqDryB5g0tq1z7CGR5jNL6m+RkrXyZB7fHprdEYMvR9hbQYulzhiIw6IrpPd4YlGlt9CiQxGpG+CICz/bVrkGsWDV3k3oJxEaLfX+ccePvJ2amlrv7xADr507dqLw0CG+mwyR3cfzfR/cfq77mEhJrF6jcpPMpeku5qN6gtVUheqjs6G7tIpd1P2jkll7NxNp48u23UMfACXdiZtHjuTVSa4OSimJbP5us9BqiMLOOannT3owxVvPojpxdKT9UqNLkTxtfkHQDJMzKFKn4IhIYeKzt9wUPIoFMDS0S6eWpQwYMICfqZhHTF3Rv0Hq57rDrVAPX/ZMRM64L3QkokzON56wGhr5LWCipExAxYHJ0JQsZv7r20g89xb8M9vdEKk1pXX9VJ3k6qAkvTgBQIlvRxujNQdEf5qmdWlK1BH/+Pija/P+tI+AI8RkPYmwpKSEt/v3twlTpHfvbL4Akp5FdbxEr169+NlT3Ar1RJn35nR8DzU+GZ2I4i7vItrkxGk3u3YLnEHW1VC6FYbyXdhweS/yts2C1uzbL22zhxL3tN8UkZGR4XA+3RFDhtQVd1NRsyMapJQkY7OTkdwpnqSn7BkzZiyPyglK/s+fNxcHDtjy2yS6F154/toER9u27XDrrb/ibXtoLy4pNOSnpNTfK5cCMnth2r/PHe6FetU7i3pXphof3xnBh5xWqiic6LIAsSZb8liK1YONdj1hy5WDGLH9Wb+K9bvv6hL3Q4fmCS33UAAhJrFp55TmCA29U6ZM5dE7QRuwvTxnDg8KaX9WGg0IyoNOmTqFtx1hn7AfKOzNZU9/IfoXodrZxuBWqMVeWFQS6Wd3R7DoVehgtFBF4lTmQrQy+b6O3hk/lh3hYq0x+acmgfaaIiiNQmmpxnCbsIOJVlvLi1EI+tBJIDRnbx+YxDLrRpaHrLboP7qCniVG085yoeRDdujQgVnEtny7S3toy8yFixbzmlrxWSL0fPLJaf4/I8PxKmER2haToPeIBTr29O3X79qGcLTRXHR0436dp9syv7hXK3BV6/lYNDojGP++LxLOCuhrLQZ0PDwFV1S2yM9abYD5vO2D9Bc5LdKxMfd1RKua7ktxPUL+NM1YkfClUXtzwKVQKdoPmeP5toYk0mVMpCo3dlpnMSL98FRcUFXz1JS5xGa5/EnPmA7YPPgNtAiWdy+5HnApqUsaz/3HUZ08EykRqgzGyayFaGuKhoK242uCX++4v/Ikcrc+iXJj/WIImcDEpawuVns25A9LU2HleM9EKhKsUOFEt4VINbWAIsr9/qTecLjqDBdrqcH/Flvml8WltMq07i3qcCbSVRMiofYi265CEI53ew+94vz/CypESKyDmFgv6f8/dma+XnEp1Eqda4s6KFWFb5hIQ1XeD91K9ie/x5uYcIPjaNEfHKs+j4FbZuAnbf0lFTKBg0uhuirt69dOhXUP+CZSERLrP3rNwsx0WxV7U3BKcwFDvp8pizVAcSNUoWEHiXTDpEiEB/s3CHoz6xF8PWAOIlQNJwb8wUkm1hu3zsCZ2stCj0yg4FKoNYaGFjWnrU2kkWr/R+rE6DYDkJ/3HvLiewg9/oVEOnDLdJyosS0skwkMXArVfhq+W2IQvp3YdCIV6RKVgs25b3DB3tba9UpKb/hZV8YDLHIHZAIDl0KVzgWQSL97KAoxoU0rUil9WqTjm4FzcWrkx3glcyKyov23pxJlASjAokBLpvnjcmZq9iYt5m/RISM+CNsfiULLsF9OpM44VHWaz+kfqDyFgooTOFh52qdClPiQGGzKfR3dom8QemSaIy6FOmezFl8WGrGVWdL4iP+9SJ1xtPocF2xhVQn2MfFeZNayyliLSqMGlSYNdG5+80pscCQOjngfyWG+b1Ih0zS4FGpZrZXvg9qcReopV/SV14RL1VX2P3W/lp0RFuTFbxaU+UVwWz0lI9MccBlMycg0F2ShygQEslBlAgJZqDIBgSxUmYBAFqpMQCALVSYgkIUqExDIQpUJCGShygQEslBlAgJZqDIBgSxUmYBAFqpMQCALVSYgkIUqExDIQpUJAID/AupHUlu3vVjnAAAAAElFTkSuQmCC;" vertex="1" parent="1">
          <mxGeometry x="-126.75" y="280" width="170" height="95" as="geometry" />
        </mxCell>
        <mxCell id="IeRwTSqB_coKtBVF76bU-4" value="" style="shape=image;verticalLabelPosition=bottom;labelBackgroundColor=default;verticalAlign=top;aspect=fixed;imageAspect=0;image=data:image/png,iVBORw0KGgoAAAANSUhEUgAAAKEAAACYCAYAAACMJInTAAAAAXNSR0IArs4c6QAAAARnQU1BAACxjwv8YQUAAAAJcEhZcwAADsMAAA7DAcdvqGQAACMrSURBVHhe7X0LeBzVmeXpd+v9sGRLsmTJNn4oPIyBAHYAA4ZgAkNgwKyXR7IwhB1IliQwO8lm5svMZDKZL7O7gcmGMBvykU0GEibAhDAxBgI2BHB42NgG24CNbWzLsqz3W92t7tb+59at7upWybYsWd0t6rRO161bt6puVZ36//vful1yLb509QgcOMgg3HrqwEHG4IjQQcbhiNBBxuGI0EHG4YjQQcbhalzpRMcOMgvHEjrIOBwROsg4HBE6yDjcYIvQocMM0rGEDjIOEaGNNB06nEI6ltBBxuGI0EHG4YjQQcbhiNBBxuFqvPQGtg5zBC7E3V7EPQGMuDw67xOGEblc1ivmIvmVhGskBncsDHc8KnPZf3lzSoRxtw+hgmr0l87DcKBY535CIFeJUgt6XSgJuOH3uDE4HEdPKIYohSkLR+LUowu+SB8KuvciONAsQhw21s9iiAivzx0RigXsLV+MzupzEc6vlJycqfrEIYca9LiwaFYQp1QEUeR3oz8Sx6b9/egYjKK2PICACDMcG8FA+2HEdm9EYecHyiJmO3L0iQm/pjl4iHH5impK2isteAqxuyeC/S1DYuVGUBTwICrCqynw4fpTy3B+XYG4Y+MUqdOUA3Tb5GU9DSRThqOaTjQms4r9WDavEMvnFaG21A+f24V8nxs1ZX7MnRlEZaEPXnG/pEfEOSCWUfSIoFhJ6/nKduZcdOxSH7fc7ZzqeUlMKxpHiMKAFzWleZhdKu43z4dI3IWDvTH0ReWyeXzY0x1Dc7+0CaX01sNhPLKpHes+6EX7kGocyhZyA67Fl+ROmxASGXuKZsBXXg34AggNhRAORfTC6YfhWByhqAhKEBRf7BVLGBUXHJL8mExpGQNiGd0iuBHxvX5/AHn5eXBJOzDWKe3Cvg5x44yQsxs5JUK2iSoKvJhTFkDQHUdHewd6e3vFpI/IjZ8r9/3JAdt/RcXFqJgxA5ERNw50hdE6EBWx6gJZjBwToQszpAFeW5YHv7RmOzs70dfXp6yAI0KKsAjl5eUYFrfd1DWE9oFhZTGzHWJbWMlcooPjh935yz7mXGDiYPrBEaGDjMMRoYOMI/eemDg4ftidvyykYwkdZByOCB1kHCJCG/uY9XRwbNidt+zk9LKE9sc4MTo46XDzSUNO8SiP5fn4jk9PyBQhnQBTtpOTSDtv2czGS/40Z06z8djOj9l2j+3kMyJ5saIY4iVxjHiNvBPBiEvWHXLB2+mFOyTOIgeeCPJ+SX9s1zEQyYnHdtNLhCK8yLwIQo0hxPPjarjXiYBi9rZ6kbc1D942b06Eb7kswunXJozKQYXdE6ZrWAScAyNQpgNcjRdfl1uWsJCWMN/eEoobjRfEESuOSWG90gnCFXLB0+2BO5Kr7ngQHf254o6niwilgZsILCYLFN8JCpB1iselbSpTk+MBj8ftFqssVMd2DHDzjginAMcUITHZRzNOEbIusVhM0ev1Ij8/H8XFxSgqKkJBQQECgYASVjq4XjQaRSgUwuDgoDouDthlmuC27NYz4YhwinBcIswQWAdaPpKiW7hwIU4//XQsWLAAVVVVyMvLg8cj7n0My8b1zW1QwP39/di3bx+2bdumePjwYbWc27Bf3xHhlCBbRWiKx+/3Y8mSJbjiiitwxhlnKDGaFow/FRkIR9EfHkY4EsOwZERlHVbbK8t9HjfyAh4UBf3I88s60r6lGGkJP/roI7zwwgvYuHGjso52QnREOEXIVhFSLLR0l112GVavXo26ujpERGSHOgexvakbu1p6cVhE0dUfRu9gRMQYESFG1Q+ZRD5yXFBvVCgIeFGS58eMogAW15bhvAWzML+qBEGfB+3t7Vi3bh3Wrl2L1tbWURY1l0XoqWxo/FudznrwV2X5fg+K83zwyPkfGhpCJGL82k5dEJ7vKeaIXGTue/ny5bjxxhsxq6YOOw/14Ik39+PR1/diw84WvC9CPNQ5gO6BMELDw4iPiAWUlXkMbOZxG7SMfUNhtHQPYG9LD97ZcwSvbG/CwfZelBUFUTurHLWzZyuL29zcjIGBAbVfqxDZ3uTNEB9xoTc0jCGxuBRntkNEuDiHRAgtQv9oEarLKh+v0C/0TQ2H5VNdU41rrr4Gp55+Jt4Twf36zQN4bVeriGpY1dMrVo5TmSg3S8tNUsUUIKesPY/PK/TJF2+4IXHde1u6caCtV1nIebMrUVpSrKwi24gMZNSxayGmijCiRZj9KhR3fG0O3CsGku64YLQ75mX0iChqRBb1wxgJnvzD4n5j0RhW1KzAnZfciaLyOvxm00G88N5hcbUx9cP1uRUFquyeI71oFmsYlXy+uUjkpzrDTUGOME9P5Uul4yLQGNuaot7li2vwn1c0yvby8MrLG/DEE0+gqakpYQ2leJo7Hsgld5xLltB0x/aWEB5pn82KIdIgJ3+GWIFCuZCFErGeJMYKY3AVufDpeZ/GeQ3L0dY/go2721R7rG5GPq5eWovrPl2PZQtmqrcpHGjvR9dASESjdJgQWzrlK5kWULhDkWGUFQQwv2YG3CMx7N27F0eOHEmU4RnIVXfsZiVzjWNCLqy7RyLNAz749/jh33ty6dvjQ3B/EMXhYgT9QQxK9DsgF58ut7Y8Hwuri1FeGECpiOdTEmjMoVXkMYh1MkVmWMDUTm2TSqmaPf1DONDagx4JbBh10+L5fD594BrWc6PPVS5w7N7PXAObRXJAnjYPgtuDyNuSh+CW4MnlO8Ktwo6gtPe8EnSIxRqOSlttBKGwpIV0qURI8tnGY1Binv2k2NLJY0kVJN07BR6W7bCLht1BR+u8ziVMHxEKOGrGHXWr4VfuwamhZ8gDT9SjmgNsf8ViI8p97m3txSs7D2PTnjZhK158twl7JOp1JYRlWrlUscmf0MYyyrYp6DgL6EBkumBaiVBZQx7RVNPUBAWi2dUfwoYdzfjR8ztx/9p38fzWg6qLxtAPTZ3xLfJK/VBw1mnaZzpCTqFxKnKHhDmdWlAY7Kdj18jwsEThmswj6HmjfGOWMBqNo38ogqb2PhWQ9EqaVpLLhiWiprVk5EvLxu1SuCbNNqPaoKaa18fNNDvIrXVgnZjHuhhlVcmcIO9jB8cALyqjcA4u4IVme4wDEkpLSxWDwaAqx35Av9d4XVvAZ0yDEs3n+QyqfK9b0pIvU77aza2ugxaeEtvoNqOaVd7byGdbkAMjzP2ThUWF8Em9WCYaNW6MXHHarsUrPs/TkBMw+gkDKvL0ywUf9dhuko+E243FY+qicxACnwefccbpmD9vHmZWVqjuEC5ze3xCIzDpHRxGRKxdstmmK5VWNwYYW/e14pk392B3c5fkGAJLCk8smrZqbAt65NgvPLUOt3/2TDTOqVBPWGhRCZYb6B9AT08XWo5IO3TLNrzy9nvYf6RDWeZsx/QRoXzk0umSbKZNzA4oIcinoqICF110EVauXIm6+gaMSBTcL1Fv71AUgxFxfxSJdoMUnke+EgKkrtSU30bdzPmwCHbngQ6sf3c/Pm7tUXmmAGn2VDpNhBecNkdE+CmcVucRF9ZvbE3ti18BmRRITgG6e8N4+Y138NS6F7Hjwz0SqWf3y9Onlwg58oQ/dCqTi+c98cNSF16EML9yPm64+AZcdN4KRD1B7Gjqwdt7O/BRSy/a+0IYDA+rNp4SjGm5KAzlVtNplhNKOUmYO1N5CeEp6rTeDgXOd1JfeFo9br+8DqdV7oQ7tFn2EzL0NyJfLr+08MtEi41A8EwMRkvx+qYdeOw3z2Lrjg8R1p362QhPRc49MfHaD2Dg1fBKYFAbRfi0MIbnikBqJACYHR0X+dgvXB3G7MbZWHP5Gqxcejl6w148t60ZT286gHcPdqFDBEh3KArRIkgKypgak1TwRtEwyynJGh/mJUVoFEnO87myC/WzSrF0fglmFrTBFT0sBcQdK7PLwnIeYuLWh5tEnP3wBSrEis9R3Ub7m5rR09vPUlkJt+WIc4i69ulgPq9LWCQZOjGODI2g1F2KK+ZfgRVzV2BgyIOXdhzGi9sPo6UnpMTAsX98KsIGAPv9KANjatLQZnI+lUZFraITmh9rntD+YM09CFQR+VJTcQ+xQSC0U+7QLSjJj+D8padj6WmNyAuKu1blso9S62kEMU78iWZgewB5m/OMJxrjYGCzrLclD0sHl+LCmRei0FeqRsW8vqsNnQNhZX0pNvPkpQtGculV9bzVvdpTvkaTW1FpBhScHwu6DK2hSd6BzI9JGzO0C4jsR61Yz7NOW4yZFeVqrWzE9BGhEogLnj4P/If88B8YPz0fe1DeUY4zy85EfXm9GoWy41A3jvQMybZlHyIOQ0DpApN5flQgYTK5TCvTmBf3yHRiPr0824HqMwZ0PaShKFOKz9y+UOWRUWmXHFGuOeCLYsHcOWiorTF6ELIQ08sSTgDqwsvFnVExQ42MZt/fwc4BFYSEozG5gKY4+LGCguK1N6apNPLURKf5ZQrOXJ4sw6RlJg2MvD2qGcBxhLR6FJy2gqYlNIUZ6xNL2Cxi7EZVZTnqa6vVM+dsxPQSodlUOhEKeJEqKyuVEOUyorlrEK29IeWCk6IxqKyeImXD0kaZpGWzWDdFrpaeZ2XqOunwez0ozPMj6JUbIi7tPv7jRCmfpEWMXD8eFkvYKmLsRDF7FKqrEPRLBJ2FcCyhBi88Rch+wbKyMgxJ9NumumGihkYpNkURCqnFoj5KB5zX+ebHLKNoEZhmMp8bSOZbocrIp7w4Dwtml6O8gK62U+oj0XCK8KyCJCUv1qssIZ/isE0YDDoizGrwYnNQKEXIR3JdA8NolWiYv4iTpZYP59QaKTSWGDC0JDlKUJrmYp2fXGYgdc4Ay7CLxe/1Ysm8WTh3QQFK/XSxYuHoktU2WD8RnHLFWoCmq46LS453SVMihoryMomQjceL2QYRoXn4ucKTBz6PpQA5WJQWkANI4+yMFiGqgQEJcsSyTuvlKcsUJS1l2JmtKHlRc+CCpprXjOkBCBzUoMjlQj57Xv6pOly77BTMLe+GK7Rd3GyXiEuExn8Zpsi0nmdQYs7H+qVst0zDKC8pMrppbM9pZulYQgsoPlpDRpFhccchPpYTQSiLo62XopRVRkdlW/I1+ShP/bZD/jhggf8csawgiPKivBTOUMw3WFyACgtnlhbh1IZZ+OLlS/DVa5fg7Ppe+EIbgfDHsneKTVs8VZF0Mp9ClHYj248jEeTlBeATi5qNcDWuuIbnNCdgPrabXc4fOtkMYJgAaHnmzJmDNWvW4OKLL8a2pn48smEXdrf0wEd/YYqMHyUwPS8XXU1FrMawrLgEDx7MnlGIhbNnoGFmsQgsqH/QLjsyz7aaGjOylppawd8aV5UFUFUSQTC+Bxh4UwT4kRSWgIPFKTYmEsLjvCVNi8jWbOFyoHw1eiIV+K/f+C7efX+X5GcXXI0X5agIPZMvwvr6eiXCFStWYNshivBD7DpMEboSYpMvNTUCEUMEnPJZM6flhUGcv7Aal55Rg8YaH4oDA3CPDHEPxo7MUDwB6+ln2tiHElusA4jsE/EJo+KCKS5VTAstIUJuW+dxXZWmNZRk4TIR4Y0YQi3u+Iu/w5btH0hmdsFxxxYY7bSoEhPdaEAsmpKMEgWvqBagOa/TiiLKCnGvV57VgJsurMOn69pROrIe7r5/B3qftOETSfb8Wvg40C3s+pXwl8a0+z/EAr4jAhQxcn9KdBQXBWgKTc+PohamS+5Wl9do03ITWQhHhBZwhDIHRBgi5EBUnh5t5fjR1s8gL6ph/RhI5DGAWFyNK5fORH3xPnhD64GhzSIgDiiQ4CAuQYIiI1ZNdqEo9kg5YYxBhEzjJNty7AtUVTBExWDDFJ41bTevKCu6JBhxBxEKD0ugQxedfWBrRya5xJOHcDisXkBEq8GROiX5frGEFJzsmcZFVYEzksekIodajaCushjLFlWirqQD7vAWUfQhWUpLJMGAIi0SSWGLfeXKhLlNJvTEoLZoCTdrTYvAzG4YK1UZiwg5rMhdKLvziwgjysrLgqyjYwkt4NCwrq4uJUQKsKIoqB6VGa7MuMimJVTCYVoE6PW4sKCmFKdUeeGNSfCgBCjLTcElYK6nBaOoxZRIM/IltZBSLJxeZgrNzvol8qScRwTorZAqBNDV24dQlv6XfEeEGgxs6I75npeenh71G5CZEtUWiJtl5KsEZxWfJl0x36ZVJ9FwaVBcaLRFlnMk89EESJGYwjPndZ7al4VWy5bIt6RVeUuZRHnJ95QAvgqRuAfNLa3oHxxQNck2OCLUoAjprtra2lTUzQELVaV5Khpnn5/Ix6BFgCRdMd8VUxT0SBTNdhyH3YsAUoJgGwEq62cRDOeViyXNeZbRtKbNbZnlR5WhtRRX7KsRViMUGUHT4Rax8CHJzz7kvAjTRXGiNLdFEfIdLxTk7BkFaJhZpH5Fp4bxa7dsperMFvBlCHw8ZgjA2J4SBN2jonalpvDUvCWdePJhrmPJ43rp5VWetZw5r+kpBQLzRIsz0NHdh737m1S7MBth/OIwx2iF1o+aTpQcwNDd3a1eNkSXXFmch1Nry8UaBg2xSaF08SZp1CMBZqhMrjcWRSyKuizzlGUjrcvTy1vnddq0nIoSAAXmAHkLEXflY8/HB/GRMCblWKNsY05aQlZczA78gYD6vW1hUZF6LdrEWQKfP4D9Bw7igNAvAceZcytwzvxK1UbkzydtBaguvKqVAckzKPnpYkkIyS7Pbrk5tdK6XGiKz8yXdiAKzgKC89DTH8HO3XuUO85WeCrmLMytl2RKEMBXwwX9PgREMPkFBSgoKFRvxp8MFhbyfYIjaiADB7dWlBWpffI1v229g9K+iqp24EjMaA/yRUWFQR/OOWUmFlYNwx3ZI8as16iwKRBTkCptobJ62rUmomKmLfkUlblsrDLM5zzhLQeKLwBKL0PUXYVt7+/Gs+v/IO74kHhpXSbL4Kmozx0RMnjgM9WCgE/aaW4O8VO/djSigEmiy42wRMndPb0IBIOoqa5GbWUpaiX65X5ZihaSaQ5MKBABVpUV4CyxlnMrQiLC3VqEUtIqvFECpOX0yZ1VKFehSIrnG3RzKjeCW9PDPMu8ypN11HpMM49p/txzPlBymQhwFeL+BjS1dOC59a9i49tb0D8gQVOWwrX4wqt5NnICSgDiFjkYgH1zJw36jDTUz8GfXHk5Lr3gfJSVlihreLhzAF39Q8ZLz6UcBy3wxmiYmY+qvN1w9z+n+wmlXZYuPjPN9iX7EEUoKDhXtDhL8s3LYJna5dnmExINe0WI/hrEXIU43NqB5ze8hqefX499Bw6pR5LZipwS4VTDK4FKfV0NVooIL/nMuTilYQ4K8vOURR4F/u536B2g91kRYbNksLltEZ4SIQUkU0avvKX8DB7OFBHOlHyrsDRVFqdMSHlfpY54JfK1qQODp4HBIezetx/rX3sTGza+hYOHWjCsnpRkLxwRHgNuaYgWFxaioW42GhfMw/yGOpSLVTTeksofpbsxp7YaDbMr4Y1sFRGuNSwhLV26+BJke46nnf063A4FxXxdzhRuIo+ilbKF5wAzVmMgXof9Iq4j7R2q64iISBOiq7tHWT0GIpz29fWrzvRshyPC4wTF6PdJQBQMqOH2LkZJAnbrrLlmFW65fhXy4u+JCH8nImziklRBpadTSJFZ58Wq8jckSpzcjiznc+eizwCVt2J/Ryn+7T9ewIbX38JQyOiAVkGSWDw+/w5Hkq+rywXQZzg4DvAi88VCDFhaOzpxpK1DsU3SA0MiBGWxtCVTfYq0dqaoxqDyt1YbwLSsxwg371RxvzVGNvNpWZUL5hth4+jrH1D7ttaDdRsKhXNKgAR9hkwcniiVLAyjKKC4aNVMAXKanrbksW2YmNfdLcHFQNV9EhU9CNT9PVB8kexAgo400Sb3mVqfXKRjCScInkZaHkbJynWq+9oiMPUYjQIz05pKdJxq8vcg7JrhcHx2NHuCqrMZRSLCQK3eEy+X+fog4wJOB8gRybfDEyY7gNkHNzQUlrPJPrt8vcwisARpEa2UPFOsJO1qYl1JMM22IMVNa6i2H0RE2nzcXzymy+Q4HUs4QTA6bW3rRHtXn7TlZgpptfxycjkq2hQXBSdn2xSeNT8RkMhyjqoe2iH8UIKbNuOXdQMScUdaRIfsjG5A3FWMbol6u3t7s7rvbzxwRDgJ4Pv/OEBgGMVAPp/ZLpRcumX2z5nCY5qkcLQIrWJkI49l+t8EWn9q8MhDQM8LskwEWrBUsT/sxV7ZF8cHZutw/fEip54dZyvYTcK3G8xvaEBZuVhCj4iR74KJdQo5xpBC077H6o5VHqcaphDZz0iLGGmSbZVIcHIxUHY1or55+GBPE57b8Bp27tqj3PJ0gCPCSQDfoNDd2wev14O62jkoKq0HfLMNAVGAsQGDFKY5FlCJT1vBhLXkvJAd2L4qsXznAOXXiABXIeZrwP7mDqxb/ypefWMzunr0IIlpABHhAkeEk4DBoSEcaWtX7bTKikoUl9ZKDDFX2nGLjEdtvmrDQio3zTVkqn4AxUEMAeNRnLT5VGRcfImyfCj9rMwvQWSkGLv2HcTTz72E3/9hI1ra2nKuL/BocC2+4HPqlDiYODiyp2JGOc5dejpWXXKBek1vSXGhyE0sX3xIKK6Z74dRVlFbRkbE7jxZ2RwNI1M1ciYPsRE32js68cbmbcoFb9v5IXrE4k4nARKOCCcZHNzg9/nUq9iWnLoYF5x7Fk5vXIgq9X9Pgqpz2zCFdMH61PNpiNHtzQ2oLp8Dh5qx+d2deO2td/DB7r3quXC2D0Q4UTgiPImgZeRAhxnlpZhXX4fFp8zFovlzUTWzAiVFhWpEDrt4evsH1CO3g80t2L13P3bv+xj7DjSpdibdOx8ZTme4Gi+8yhGhg4zCeWLiMOPUoZpDh5kjW8QOHGQUjggdZByOCB1kHI4IHWQcjggdZBw5+S4ah9OLYgntsh06nDo67thBxuE8MXGYcTqW0EHG4YjQQcbhiNBBxuGI0EHGISK0aSk6dDiFdCyhg4zDEaGDjMMRoYOMwxGhg4zDeWLiMON0omOHGafjjh1kHI4IHWQc01KE77/+XIK3rv68znWQrXAtXn4FHfNxgxf1W1+7S8+NBl9nwZdGrv39BvzrE7/VuVMLis/E9x54KGP1OJmoqZqJ22+6AecsOR31tTXqX1sQoVBYnf+nfvfcpBz3X997N66/6gr1xrFVa/5M59rjypUr8O37vozSkmI0fmaVzj02Jt0SsgJ8ERCF+vTPH1Iny8Hk46++fjduvv4aLDplbkKABNPM4/l//CcP6Nzx4+wlp6nrx31Yt28HXuMHv/+3+MF3/oe6/uPFhEW4/+ChFFrBk/HIA/+o5yYOHizvTJ7cPz77a537yQbP+frX3lD88KN9yhKaoDHg+RoPKD6e30d//L/U9TsaTPGtfexh9f//ThQiwtEh89GZilVrbk/hyutvTRFjfd1s3S6z29b4uPLCZerO5Mk17jj7cqNhVya3+camLbjl7vvUOf/yN/5G8dov/jmuuvkOtLS2SxkDF5x7tnzbbyOdj//kfiU+nl97JMtS3C899QslPntLmbrto3HS3TFf6H37176ZckdO5C5xYI9/feJpbN62Xc8lwfP/0qsb9dz4UFqcdKU0JNt2vK/nRqN6VqVOGXHA+tf+qOfGjxN7YmKFzfLmw62qIWuiehb/i6UkJoNW2C0nrbBbPs3Z29snCQtsytgxFI4o4X3v/oew6j/djo7ObllgQVp5uv/HnnwGy65cjTfe3soSSaSVPRq9MpkS3Lr6Wnzr68mo+t5vfw/rXnxFz6Xi6V/8S6I9sv7VP2J+wxzl1tPx/sbndUqiYDlxtA5jgW2XTy1aoF5QSdBl/Wbt8/jhw79Q83YwItDVuOC8szGrsiLhdowegENY+8LLY+7Trm7pdaC1efbFl49ahxPBpRcu1ylg284PdOrYuPYLf65Tx8aXvzF5rzp38/W246F+320CdmXIkuIiXUIumtyZjz75W3XxTNx4zeds15tdPSulQfyzXz2lU8eAetOusQ0r+M+yNzz9mFyYZYmLTzB9120345/+5hsp+zf5ucsuxlM/exA333CNugGs7R6jB6BR3VQ/++H3bde3Yqw6cLusw1/f92XbbYyHPG/3fOmLKTcwb7Rvfud/2pY/Xlpht9zk8erCjiels/qvpNFqDdW3f7BLTV99Y5OaEosXzNOpVNx20w06ZZh7tntee2szNkj0t21H6l3NPJPv79qjc1Nx3VWfVReeVsduG39yxaWjupHY3/UP37o35RhYF67/xqatKTfT+eecqSzc0WDWwdxGeh3YD5deh+PBLRLw7Xz9OcUXJUi467ablADZHud+Lr3uFl0yuzHu14Ckw7pslVy8H8kFYQRrgnfjd3/wY7X8gZ/8PyNTwAvM8tb1SXa+mqArZh7Xv1vMPzvArWCeyU0iVnMbVvDiP/bUMxJF/pkqt+bOr6l5Kyh8c13yni99IWH5WP9b7v4LiTzvUuvf9tVvYtnnbkwR0iUSeJ215LSUbVhh1sHcRnoduK/rr16Vsv7xcCywPc7l1SLs9HXGSyvslptMh12ZsTjhLhrrIzJ2VlojYd6R//Sjn0jKWLe55Yhq+Jq48Rr2qie3XVNVmXAlXPeHP/15YpnBdFiXWZkELeB3f/CgpJLLOW+1ZkakZyy7cuVFKe1P1n/ztvcklVyfvPfb/5DavPj8lfJtLZMEj/lYdVi0gMdtXf/Y3LnrIxWVktyH2TXD+vM6sP+Ox2O37vHTCrvlJtNhV8aeJ8UdE7z4d9z7Lax7KTX4WPv7l3WKLnm+ThlgEGBi6/adOjUx0JXbgf8PxA4Xf+Y8nTKsYHr9TbAr5IPdySbAovn2zQti41vv6FQqxqrD8YJNFQYIJK3rJdfdrPoOTTHSwn77vq+odDZjwiKk2EyyA5V3JSNfdqLa9WMxSjQtAF0y218mrK74R488qlMTA+s1HhQW5OsU1L/yPxoG9b/+J4IBv06NxlT+CzCe85vv+nqin5bn+J47vqDS2YoJi9D6tITtJd6VY1kPE394422dokumGzO6Q0xXTOHYCdjB8YFW2tpPu2iMIDBbcFI6q4/Ff/6/yQBFuWTJ++qd/0XniAt9U1xo2joJWmG3nLTCbjlpxRjLAgEJTtKXWZgfDErCAP//cMpyK6z5Vlpht3witMJu+fHSCrvlVlpht3wMnrQ24dHAO9UMUJRLvmwFzl26RM3TjTzyyydUOhP4nSUCZ1TLuo0Fa5t2+/u7dSrzoFdh57qJDz/aq1PZiROIjkkr7JYfm2tfSF5sumRecOLDPXtVFG23jsEkjL61o5exX06mw8hf9+LLKVHrX37lTpy95FRJpa7/+MMPJPoRkzeOtYwV1nwr02FXZjQ5IIR9k3bHz7zH/uX+RBeT6mV4OLWXgYMPtqx/RvHog0vSYVfGSivsltszI5aQsAYo55+zVE2Jn//bv+vUaLR3demUAT7RePD7fyeC+Gf1WHCy8J3//X90yrCGP73/H9U+uC8+IfnjuifVExMTP/vVk/rGmTrw6cvaX/5UPSFhvUimmWfe0ATrlg72SVKk5N23Z75DO2MiJKwBCqG6RMZ4nkxwmTXapSXixbAKYjLA/Xzv/h8nIkxeLO6D++INY7WAjz35W21pph6s16JT5ql6kUxbLWAm6zYeZFSE1gCFeGvLNp0aG7dLBM6uIKvLpHjZcTuZoKW+6qY78MzzL43q5uE8n+ZwudEJPbVg3SgwtvWs54Fg3Vjno9WNQ/8pUvLHk9QVNhG4Fi+7nI45I+Ao3kcf+oGeA1b+6a1T7tYcZB4ZtYT//Stf0inj0ZYjwE8mMiZCdn1Y23LWaNnBJwviji+bMnf8+MM/xNBQSI2vYyPaBNt4t93zl3rOwScNU/pCJP6GgdGlVYDbtr+P2/6bCNCmvMNPBqfUHYcsAwIYxTHCW/Ole3SOg08qXIvPnzp37MCBHTIaHTtwQDgidJBhAP8fCwG8plGHqWwAAAAASUVORK5CYII=;" vertex="1" parent="1">
          <mxGeometry x="-400" y="382.76" width="105" height="99.13" as="geometry" />
        </mxCell>
        <mxCell id="IeRwTSqB_coKtBVF76bU-5" value="" style="dashed=0;outlineConnect=0;html=1;align=center;labelPosition=center;verticalLabelPosition=bottom;verticalAlign=top;shape=mxgraph.weblogos.reddit;fillColor=#F3F8FC;gradientColor=#B4D2F0" vertex="1" parent="1">
          <mxGeometry x="-790" y="350" width="138" height="140" as="geometry" />
        </mxCell>
        <mxCell id="IeRwTSqB_coKtBVF76bU-6" value="" style="outlineConnect=0;dashed=0;verticalLabelPosition=bottom;verticalAlign=top;align=center;html=1;shape=mxgraph.aws3.s3;fillColor=#E05243;gradientColor=none;" vertex="1" parent="1">
          <mxGeometry x="270" y="327" width="120" height="173" as="geometry" />
        </mxCell>
        <mxCell id="IeRwTSqB_coKtBVF76bU-7" value="" style="outlineConnect=0;dashed=0;verticalLabelPosition=bottom;verticalAlign=top;align=center;html=1;shape=mxgraph.aws3.ec2;fillColor=#F58534;gradientColor=none;" vertex="1" parent="1">
          <mxGeometry x="-70" y="400" width="76.5" height="93" as="geometry" />
        </mxCell>
        <mxCell id="IeRwTSqB_coKtBVF76bU-9" value="&lt;font style=&quot;font-size: 28px;&quot;&gt;REDDIT DATA PIPELINE ARCHITECTURE&lt;/font&gt;" style="rounded=1;whiteSpace=wrap;html=1;fontStyle=1;fontSize=45;strokeColor=#666666;fillColor=#f5f5f5;fontColor=#333333;" vertex="1" parent="1">
          <mxGeometry x="-470" y="90" width="620" height="60" as="geometry" />
        </mxCell>
        <mxCell id="IeRwTSqB_coKtBVF76bU-10" value="" style="edgeStyle=orthogonalEdgeStyle;rounded=0;orthogonalLoop=1;jettySize=auto;html=1;" edge="1" parent="1">
          <mxGeometry relative="1" as="geometry">
            <mxPoint x="90" y="428.76" as="sourcePoint" />
            <mxPoint x="220" y="428.76" as="targetPoint" />
            <Array as="points">
              <mxPoint x="170" y="428.76" />
              <mxPoint x="170" y="428.76" />
            </Array>
          </mxGeometry>
        </mxCell>
        <mxCell id="IeRwTSqB_coKtBVF76bU-11" value="" style="edgeStyle=orthogonalEdgeStyle;rounded=0;orthogonalLoop=1;jettySize=auto;html=1;" edge="1" parent="1">
          <mxGeometry relative="1" as="geometry">
            <mxPoint x="-260" y="428.76" as="sourcePoint" />
            <mxPoint x="-130" y="428.76" as="targetPoint" />
            <Array as="points">
              <mxPoint x="-180" y="428.76" />
              <mxPoint x="-180" y="428.76" />
            </Array>
          </mxGeometry>
        </mxCell>
        <mxCell id="IeRwTSqB_coKtBVF76bU-13" value="" style="edgeStyle=orthogonalEdgeStyle;rounded=0;orthogonalLoop=1;jettySize=auto;html=1;" edge="1" parent="1">
          <mxGeometry relative="1" as="geometry">
            <mxPoint x="-590" y="426" as="sourcePoint" />
            <mxPoint x="-460" y="426" as="targetPoint" />
            <Array as="points">
              <mxPoint x="-510" y="426" />
              <mxPoint x="-510" y="426" />
            </Array>
          </mxGeometry>
        </mxCell>
        <mxCell id="IeRwTSqB_coKtBVF76bU-16" value="Python" style="text;html=1;align=center;verticalAlign=middle;whiteSpace=wrap;rounded=0;fontStyle=1;fontSize=18;" vertex="1" parent="1">
          <mxGeometry x="-430" y="500" width="150" height="30" as="geometry" />
        </mxCell>
        <mxCell id="IeRwTSqB_coKtBVF76bU-17" value="Reddit API" style="text;html=1;align=center;verticalAlign=middle;whiteSpace=wrap;rounded=0;fontStyle=1;fontSize=18;" vertex="1" parent="1">
          <mxGeometry x="-796" y="500" width="150" height="30" as="geometry" />
        </mxCell>
        <mxCell id="IeRwTSqB_coKtBVF76bU-19" value="EC2" style="text;html=1;align=center;verticalAlign=middle;whiteSpace=wrap;rounded=0;fontStyle=1;fontSize=18;" vertex="1" parent="1">
          <mxGeometry x="-106.75" y="513" width="150" height="30" as="geometry" />
        </mxCell>
        <mxCell id="IeRwTSqB_coKtBVF76bU-20" value="Amazon S3&amp;nbsp;" style="text;html=1;align=center;verticalAlign=middle;whiteSpace=wrap;rounded=0;fontStyle=1;fontSize=18;" vertex="1" parent="1">
          <mxGeometry x="260" y="520" width="150" height="30" as="geometry" />
        </mxCell>
      </root>
    </mxGraphModel>
  </diagram>
</mxfile>
